Jennifer Lopez-On the Floor(So You Think You Can Dance)


                                        The Final BBC One HD 11-June-2011


      Format : AVI
      Format/Info : Audio Video Interleave
      File size : 332 MiB
      Duration : 3mn 48s
      Overall bit rate : 12.2 Mbps
      Writing application : Lavf51.12.1
   Video #0
      ID : 0
      Format : MPEG-4 Visual
      Codec ID : DIV3
      Codec ID/Hint : DivX 3 Low
      Duration : 3mn 48s
      Bit rate : 12.0 Mbps
      Width : 1 920 pixels
      Height : 1 080 pixels
      Display aspect ratio : 16:9
      Frame rate : 25.000 fps
      Resolution : 24 bits
      Bits/(Pixel*Frame) : 0.231
      Stream size : 326 MiB (98%)
   Audio #1
      ID : 1
      Format : MPEG Audio
      Format version : Version 1
      Format profile : Layer 3
      Codec ID : 55
      Codec ID/Hint : MP3
      Duration : 3mn 47s
      Bit rate mode : Constant
      Bit rate : 192 Kbps
      Channel(s) : 2 channels
      Sampling rate : 44.1 KHz
      Resolution : 16 bits
      Stream size : 5.21 MiB (2%)
      Alignment : Aligned on interleaves
      Interleave, duration : 26 ms (0.65 video frame)